<?xml version="1.0" standalone="no"?>
<!DOCTYPE svg PUBLIC "-//W3C//DTD SVG 20010904//EN"
 "http://www.w3.org/TR/2001/REC-SVG-20010904/DTD/svg10.dtd">
<svg version="1.0" xmlns="http://www.w3.org/2000/svg"
 width="1667.000000pt" height="1250.000000pt" viewBox="0 0 1667.000000 1250.000000"
 preserveAspectRatio="xMidYMid meet">

<g transform="translate(0.000000,1250.000000) scale(0.100000,-0.100000)"
fill="#000000" stroke="none">
<path d="M6841 10809 c-47 -9 -114 -41 -144 -67 -10 -9 -56 -77 -101 -152 -46
-74 -136 -220 -201 -325 -65 -104 -130 -210 -145 -235 -15 -25 -57 -92 -92
-150 -456 -743 -618 -1007 -658 -1070 -45 -70 -303 -489 -484 -787 -185 -303
-431 -701 -461 -748 -18 -27 -59 -95 -92 -150 -33 -55 -131 -215 -218 -355
-87 -140 -207 -336 -267 -435 -60 -99 -120 -196 -133 -215 -13 -19 -103 -165
-200 -325 -295 -482 -414 -671 -428 -684 -8 -6 -29 -44 -48 -83 -28 -61 -34
-84 -34 -145 0 -66 2 -74 30 -102 28 -30 78 -50 140 -56 35 -4 520 -70 615
-85 54 -8 165 -23 400 -55 19 -3 161 -23 315 -45 154 -21 301 -42 325 -45 25
-3 126 -17 225 -31 99 -14 196 -28 215 -30 42 -6 375 -53 410 -59 14 -2 131
-18 260 -35 129 -17 242 -33 252 -36 9 -3 85 -14 170 -24 135 -17 238 -32 318
-45 14 -2 48 -7 75 -10 28 -3 91 -13 140 -20 50 -8 148 -22 219 -31 72 -8 164
-25 205 -36 100 -26 205 -33 259 -19 80 22 151 106 187 221 10 30 21 60 25 65
4 6 22 44 40 85 18 41 57 127 88 190 30 63 80 171 112 240 58 126 323 693 385
826 19 39 48 102 66 140 17 38 45 98 61 134 17 36 77 164 133 285 57 121 124
265 150 320 64 136 102 218 205 440 48 105 107 230 129 278 23 48 70 149 105
225 35 75 87 187 116 247 29 61 80 171 115 245 78 169 126 272 177 378 42 91
155 334 195 422 14 30 52 110 84 178 33 68 59 125 59 127 0 1 28 61 61 131 34
71 87 185 119 254 32 69 79 170 105 225 26 55 75 161 110 235 34 74 77 165 94
202 17 36 31 79 31 95 0 42 -53 117 -108 151 -78 50 -131 61 -370 82 -125 10
-337 28 -472 40 -135 11 -371 32 -525 45 -154 14 -548 47 -875 75 -327 27
-779 66 -1005 85 -225 19 -412 34 -415 34 -3 -1 -25 -5 -49 -10z m309 -59
c124 -11 560 -49 970 -85 1117 -98 2080 -184 2128 -191 41 -6 43 -8 37 -33 -3
-14 -28 -75 -56 -135 -54 -120 -53 -116 -40 -116 6 0 21 21 34 48 14 26 45 85
70 132 l46 85 52 3 c29 2 64 0 77 -3 27 -7 72 -51 72 -71 0 -10 -156 -351
-397 -869 -36 -77 -78 -167 -93 -200 -15 -33 -45 -96 -65 -140 -21 -44 -168
-361 -328 -705 -159 -344 -334 -719 -387 -835 -54 -115 -185 -399 -293 -630
-180 -388 -220 -474 -305 -655 -16 -36 -60 -130 -97 -210 -37 -80 -130 -278
-205 -440 -76 -162 -195 -419 -265 -570 -70 -151 -140 -302 -155 -335 -15 -33
-53 -113 -84 -178 -30 -65 -60 -136 -66 -158 -13 -47 -42 -79 -71 -79 -12 0
-45 14 -73 32 -59 36 -83 38 -165 13 -58 -17 -63 -17 -218 4 -87 12 -176 24
-198 27 -22 2 -69 9 -105 14 -36 5 -135 19 -220 30 -85 11 -184 25 -220 30
-36 5 -83 12 -105 15 -22 2 -105 14 -185 24 -80 11 -215 30 -300 41 -85 12
-234 32 -330 46 -269 37 -290 40 -690 94 -206 28 -553 75 -770 105 -559 77
-778 105 -819 105 -20 0 -44 7 -53 14 -39 29 -12 119 60 198 32 36 100 142
275 433 30 50 105 173 167 275 62 102 150 246 195 320 45 74 120 196 165 270
135 221 244 399 261 428 51 86 616 1009 725 1185 41 65 74 120 74 122 0 2 34
59 76 127 42 67 126 204 187 303 60 99 139 229 176 288 36 60 75 123 86 141
11 17 36 58 55 90 19 32 42 68 50 81 8 12 31 49 50 80 19 32 44 72 55 89 11
18 40 66 64 107 58 97 163 267 218 351 23 37 43 70 43 73 0 3 20 36 45 74 25
38 45 71 45 75 0 3 15 28 33 54 17 26 38 59 46 72 8 14 42 69 75 123 116 187
156 252 195 317 66 110 79 120 158 120 37 0 169 -9 293 -20z"/>
<path d="M7773 10187 c-9 -19 -8 -23 6 -23 9 0 68 -4 131 -8 83 -6 112 -5 105
3 -6 6 -52 14 -103 17 -67 5 -92 11 -92 20 0 23 -36 16 -47 -9z"/>
<path d="M7963 10183 c9 -2 25 -2 35 0 9 3 1 5 -18 5 -19 0 -27 -2 -17 -5z"/>
<path d="M10157 10145 c-20 -42 -21 -55 -6 -55 6 0 9 6 6 14 -3 8 -2 16 3 18
5 2 10 10 12 18 2 8 10 20 18 27 13 11 13 12 -1 13 -8 0 -23 -16 -32 -35z"/>
<path d="M8281 10116 c-18 -21 -10 -33 17 -27 20 5 21 8 9 24 -12 17 -14 17
-26 3z"/>
<path d="M8731 10102 c-15 -28 -15 -27 22 -27 17 0 78 -4 135 -9 97 -7 102 -7
102 12 0 21 -9 23 -177 38 -65 6 -72 5 -82 -14z"/>
<path d="M7712 10080 c-16 -26 -16 -28 11 -23 12 2 62 0 110 -4 48 -5 89 -7
92 -5 8 8 -7 32 -17 26 -5 -3 -44 -3 -85 1 -50 5 -71 10 -62 16 10 6 7 9 -11
9 -14 0 -31 -9 -38 -20z"/>
<path d="M7848 10083 c6 -2 18 -2 25 0 6 3 1 5 -13 5 -14 0 -19 -2 -12 -5z"/>
<path d="M10100 10010 c-6 -11 -8 -20 -6 -20 3 0 10 9 16 20 6 11 8 20 6 20
-3 0 -10 -9 -16 -20z"/>
<path d="M8674 9992 c-12 -18 -12 -23 -2 -21 17 3 208 -11 231 -17 13 -4 17 1
17 20 0 22 -4 26 -32 27 -18 0 -70 4 -116 7 -79 7 -83 6 -98 -16z"/>
<path d="M7613 9966 c4 -14 47 -21 47 -8 0 5 -11 12 -25 15 -16 3 -24 0 -22
-7z"/>
<path d="M7980 9940 c0 -15 7 -20 25 -20 18 0 25 5 25 20 0 15 -7 20 -25 20
-18 0 -25 -5 -25 -20z"/>
<path d="M8140 9924 c0 -19 5 -24 25 -24 18 0 25 5 25 19 0 12 -9 20 -25 23
-21 4 -25 1 -25 -18z"/>
<path d="M8420 9901 c0 -12 9 -20 25 -23 21 -4 25 -1 25 18 0 19 -5 24 -25 24
-18 0 -25 -5 -25 -19z"/>
<path d="M8572 9888 c3 -22 10 -24 118 -34 179 -18 200 -18 200 6 0 11 -4 20
-9 20 -12 0 -206 19 -264 25 -46 6 -48 5 -45 -17z"/>
<path d="M6680 9730 c-11 -11 -20 -28 -20 -37 0 -16 2 -16 11 -3 7 10 12 11
15 4 4 -9 17 -8 51 2 54 16 111 18 148 4 15 -6 33 -7 41 -2 12 7 12 11 -2 30
-14 21 -42 33 -29 13 3 -6 -26 -10 -72 -9 -43 0 -87 -1 -98 -3 -12 -3 -19 1
-17 9 3 17 -5 15 -28 -8z"/>
<path d="M6931 9658 c-2 -34 11 -48 46 -48 44 0 40 24 -5 28 -19 2 -32 10 -35
20 -4 16 -5 16 -6 0z"/>
<path d="M8190 9534 c-87 -78 -182 -170 -135 -132 11 9 24 17 28 17 12 0 205
171 211 187 10 26 -9 13 -104 -72z"/>
<path d="M8431 9540 c-18 -34 -31 -64 -28 -67 3 -3 15 13 26 34 l20 39 133
-12 c73 -7 154 -15 181 -18 35 -4 47 -2 47 8 0 14 -29 19 -170 32 -75 7 -131
23 -81 24 39 0 21 7 -39 14 l-55 7 -34 -61z m66 44 c-3 -3 -12 -4 -19 -1 -8 3
-5 6 6 6 11 1 17 -2 13 -5z"/>
<path d="M6628 9572 c20 -18 201 -86 209 -78 10 10 -42 37 -112 59 -44 14 -89
28 -100 32 -18 6 -18 5 3 -13z"/>
<path d="M8982 9491 c-17 -32 -32 -65 -32 -72 1 -8 12 7 25 33 23 44 26 46 62
42 164 -17 224 -25 236 -30 19 -7 31 26 16 40 -9 8 -10 7 -6 -6 5 -15 3 -15
-28 -2 -19 8 -56 14 -82 15 -26 0 -57 4 -68 9 l-20 9 20 1 c17 2 16 3 -5 10
-14 4 -39 8 -55 9 -27 1 -34 -5 -63 -58z m65 43 c-3 -3 -12 -4 -19 -1 -8 3 -5
6 6 6 11 1 17 -2 13 -5z"/>
<path d="M6850 9420 c-14 -11 -20 -20 -14 -20 6 0 19 9 29 20 23 25 17 25 -15
0z"/>
<path d="M8358 9398 c-26 -40 -60 -110 -55 -115 3 -2 15 15 28 38 28 49 16 48
242 25 65 -6 121 -8 123 -4 12 19 -12 26 -109 33 -57 4 -110 11 -118 16 -12 7
-12 9 1 10 20 2 -38 16 -71 18 -18 1 -32 -7 -41 -21z"/>
<path d="M6835 9384 c-42 -25 -75 -31 -75 -14 0 17 -100 12 -106 -5 -8 -19
-59 -19 -114 0 -50 17 -62 14 -28 -9 79 -51 278 -44 348 12 38 31 19 43 -25
16z"/>
<path d="M8004 9368 l-19 -23 23 19 c21 18 27 26 19 26 -2 0 -12 -10 -23 -22z"/>
<path d="M8872 9275 c-24 -48 -41 -90 -38 -92 3 -3 19 24 37 59 l32 64 56 -4
c31 -2 71 -7 88 -12 20 -5 35 -5 39 1 3 6 12 2 20 -8 12 -14 12 -12 0 14 -16
33 -40 56 -30 29 7 -19 0 -20 -27 -5 -11 5 -17 14 -14 20 4 5 5 9 3 9 -2 1
-30 3 -63 6 l-60 6 -43 -87z"/>
<path d="M9296 9343 c-15 -8 -46 -18 -68 -20 -50 -7 -44 -29 7 -26 40 3 96 30
103 51 5 15 -5 14 -42 -5z"/>
<path d="M6979 9306 c16 -19 75 -22 69 -3 -3 6 -22 13 -43 15 -34 3 -37 2 -26
-12z"/>
<path d="M7180 9293 c0 -16 16 -19 160 -33 63 -6 134 -13 158 -16 40 -5 42 -4
42 20 0 14 -3 27 -7 29 -5 3 -48 7 -98 10 l-90 6 75 -14 75 -13 -95 5 c-52 3
-123 8 -157 12 -49 6 -63 4 -63 -6z"/>
<path d="M7809 9243 c6 -23 14 -29 45 -31 35 -3 37 -2 31 20 -9 29 -23 38 -57
38 -24 0 -26 -3 -19 -27z"/>
<path d="M8190 9205 c0 -30 -3 -30 220 -50 96 -9 185 -18 198 -21 19 -4 22 0
22 26 0 16 -1 30 -2 30 -2 0 -91 9 -198 20 -250 25 -240 26 -240 -5z"/>
<path d="M8740 9163 c0 -28 13 -40 48 -45 29 -4 32 -2 32 23 0 19 -6 28 -22
33 -40 10 -58 7 -58 -11z"/>
<path d="M9174 9114 c10 -37 7 -35 55 -41 40 -6 41 -5 41 26 0 27 -3 31 -27
31 -16 0 -39 3 -52 7 -22 6 -23 4 -17 -23z"/>
<path d="M7000 9071 c0 -5 -16 -19 -36 -30 -46 -28 -39 -36 12 -15 24 10 54
14 81 11 23 -2 40 -1 37 4 -3 5 -12 9 -20 9 -8 0 -17 7 -20 15 -7 16 -54 21
-54 6z"/>
<path d="M7390 9025 c0 -8 -6 -15 -14 -15 -13 0 -67 -39 -55 -40 4 0 24 7 45
16 26 11 54 14 87 11 29 -4 45 -2 42 3 -4 6 -13 10 -21 10 -8 0 -17 7 -20 15
-4 9 -19 15 -35 15 -19 0 -29 -5 -29 -15z"/>
<path d="M7790 8990 c0 -5 -16 -16 -35 -24 -19 -8 -35 -19 -35 -25 0 -6 16 -3
37 6 24 9 55 13 85 11 l48 -5 -26 23 c-25 24 -74 33 -74 14z"/>
<path d="M8380 8932 c0 -5 -18 -16 -40 -25 -22 -8 -40 -20 -40 -26 0 -6 15 -4
37 6 24 9 56 14 89 11 35 -3 51 -1 51 8 0 7 -6 10 -12 7 -7 -2 -19 3 -28 11
-16 17 -57 22 -57 8z"/>
<path d="M7050 8900 c-9 -18 -17 -19 -65 -14 -35 4 -55 3 -55 -4 0 -6 -13 -7
-37 -1 -48 10 -53 5 -11 -12 18 -7 56 -13 85 -13 47 0 57 4 85 32 18 18 27 32
21 32 -7 0 -17 -9 -23 -20z"/>
<path d="M7441 8863 c-7 -14 -25 -18 -88 -19 -43 0 -87 3 -98 9 -19 9 -19 8
-4 -8 22 -22 94 -38 141 -30 26 5 44 16 59 36 11 16 16 29 10 29 -5 0 -14 -8
-20 -17z"/>
<path d="M7842 8831 c-8 -4 -13 -12 -13 -17 1 -12 -159 -13 -184 -1 -18 9 -18
8 -7 -6 18 -21 104 -39 152 -31 26 4 45 15 59 35 21 29 18 37 -7 20z"/>
<path d="M7055 8797 c-34 -24 -83 -37 -88 -24 -2 8 -22 7 -73 -2 -57 -11 -75
-11 -95 -1 -23 12 -23 12 -6 -6 13 -14 36 -20 93 -22 82 -5 147 13 179 48 21
23 17 25 -10 7z"/>
<path d="M8418 8759 c-13 -20 -18 -21 -71 -12 -37 7 -60 6 -66 0 -7 -7 -19 -6
-38 2 -26 12 -27 11 -12 -4 22 -22 94 -38 140 -30 38 7 108 65 77 65 -9 0 -22
-10 -30 -21z"/>
<path d="M7415 8739 c-44 -20 -70 -24 -60 -9 8 13 -4 13 -81 -1 -47 -8 -68 -8
-84 1 -17 9 -21 9 -15 0 22 -36 167 -43 238 -12 24 11 48 25 51 31 10 15 -2
13 -49 -10z"/>
<path d="M7815 8699 c-44 -20 -71 -24 -77 -10 -2 5 -30 5 -66 0 -42 -6 -71 -5
-85 2 l-22 10 22 -19 c43 -38 167 -36 243 3 28 15 49 36 33 34 -4 0 -26 -9
-48 -20z"/>
<path d="M7936 8655 c4 -8 10 -12 15 -9 14 8 10 24 -6 24 -9 0 -12 -6 -9 -15z"/>
<path d="M8402 8639 c-36 -17 -51 -19 -110 -11 -44 6 -69 6 -73 -1 -5 -6 -18
-6 -39 2 -28 9 -31 9 -20 -4 20 -24 116 -39 178 -26 47 9 122 44 122 57 0 7
-14 3 -58 -17z"/>
<path d="M7943 8593 c-25 -5 -32 -23 -9 -23 22 0 46 11 46 21 0 5 -3 8 -7 8
-5 -1 -18 -4 -30 -6z"/>
<path d="M5655 6352 c-45 -80 -66 -108 -83 -110 -26 -4 -30 -32 -4 -32 13 0
38 36 86 121 37 67 66 123 64 125 -2 1 -30 -45 -63 -104z"/>
<path d="M5450 6431 c-7 -15 -7 -21 0 -21 12 0 25 28 17 36 -3 3 -10 -4 -17
-15z"/>
<path d="M5796 6398 c-12 -23 -12 -27 -2 -14 15 18 21 18 117 7 94 -12 102
-11 115 6 7 10 13 23 14 28 0 6 -4 4 -9 -3 -7 -11 -25 -12 -97 -3 -120 15
-117 15 -138 -21z"/>
<path d="M5406 6353 c-43 -82 -61 -104 -74 -91 -9 9 -12 8 -12 -5 0 -10 8 -17
18 -17 11 0 32 27 60 77 23 42 40 78 38 81 -3 2 -16 -18 -30 -45z"/>
<path d="M6060 6386 c0 -18 82 -29 92 -13 9 15 -15 25 -59 26 -22 1 -33 -4
-33 -13z"/>
<path d="M6335 6380 c-3 -6 -30 -7 -64 -4 l-58 7 -54 -99 c-41 -74 -60 -100
-77 -102 -27 -4 -29 -28 -2 -35 11 -3 20 -1 20 4 0 4 24 52 53 105 l52 96 61
-6 c58 -6 61 -5 72 19 11 24 9 35 -3 15z"/>
<path d="M6531 6334 c0 -11 3 -14 6 -6 3 7 2 16 -1 19 -3 4 -6 -2 -5 -13z"/>
<path d="M5753 6318 c-6 -7 -16 -24 -22 -38 l-12 -25 19 24 c18 22 24 23 83
17 35 -4 82 -10 103 -13 27 -4 37 -3 32 5 -3 6 -2 13 4 17 5 3 10 12 10 18 0
8 -3 8 -9 -1 -6 -11 -23 -11 -85 -3 -99 14 -111 14 -123 -1z"/>
<path d="M6676 6294 c-18 -26 -18 -26 3 -15 11 7 21 18 21 26 0 20 -2 19 -24
-11z"/>
<path d="M6742 6285 c0 -16 2 -22 5 -12 2 9 2 23 0 30 -3 6 -5 -1 -5 -18z"/>
<path d="M6916 6293 c-11 -11 -6 -24 5 -17 6 3 14 2 18 -4 9 -15 93 -19 98 -5
3 7 -6 14 -19 17 -50 10 -97 14 -102 9z"/>
<path d="M6521 6274 c0 -11 3 -14 6 -6 3 7 2 16 -1 19 -3 4 -6 -2 -5 -13z"/>
<path d="M7069 6219 c-16 -33 -27 -59 -24 -59 2 0 14 19 26 41 l21 42 64 -7
c38 -4 64 -3 64 3 0 5 3 18 6 28 4 13 3 14 -3 5 -7 -10 -23 -11 -67 -4 l-57 9
-30 -58z"/>
<path d="M6512 6220 c0 -14 2 -19 5 -12 2 6 2 18 0 25 -3 6 -5 1 -5 -13z"/>
<path d="M5660 6216 c0 -9 14 -16 38 -20 88 -14 214 -28 216 -25 2 2 7 15 10
29 5 17 4 21 -2 11 -8 -11 -27 -12 -113 -2 -57 7 -114 14 -126 17 -16 3 -23 0
-23 -10z"/>
<path d="M6732 6190 c0 -14 2 -19 5 -12 2 6 2 18 0 25 -3 6 -5 1 -5 -13z"/>
<path d="M6462 6119 c2 -7 14 -16 27 -20 18 -7 22 -6 19 9 -2 9 -14 19 -27 20
-15 3 -22 -1 -19 -9z"/>
<path d="M6690 6086 c0 -10 9 -16 21 -16 24 0 21 23 -4 28 -10 2 -17 -3 -17
-12z"/>
<path d="M6995 6080 c-3 -5 -15 -10 -26 -10 -24 0 -25 -26 -1 -32 14 -4 22 3
29 23 11 29 10 38 -2 19z"/>
<path d="M5096 5864 c-64 -114 -115 -208 -113 -210 2 -2 56 89 121 202 64 114
115 208 113 210 -2 3 -57 -88 -121 -202z"/>
<path d="M5480 5980 c-8 -5 -10 -10 -5 -10 6 0 -3 -12 -20 -26 l-30 -25 30 15
c46 22 97 29 127 17 15 -6 30 -7 32 -2 3 4 0 8 -7 9 -7 1 -31 5 -54 8 -24 3
-40 10 -37 15 7 12 -17 11 -36 -1z"/>
<path d="M5040 5969 c12 -8 9 -9 -12 -5 -35 8 -94 -4 -76 -15 9 -6 4 -9 -14
-9 -16 0 -28 -4 -28 -10 0 -13 17 -13 82 1 62 13 86 28 66 40 -19 13 -35 10
-18 -2z"/>
<path d="M5910 5893 l-35 -33 49 21 c36 16 60 20 92 15 24 -3 46 -1 49 4 3 6
-1 7 -9 4 -9 -3 -18 0 -21 8 -4 10 -20 15 -48 14 -33 0 -49 -7 -77 -33z"/>
<path d="M5354 5858 c-39 -61 -64 -119 -63 -148 0 -16 5 -9 13 21 11 43 29 79
71 142 9 15 15 27 11 27 -3 0 -18 -19 -32 -42z"/>
<path d="M5702 5880 c0 -14 2 -19 5 -12 2 6 2 18 0 25 -3 6 -5 1 -5 -13z"/>
<path d="M6418 5856 c-45 -12 -83 -34 -74 -43 2 -3 19 3 37 12 24 13 48 16 93
12 40 -3 53 -2 39 4 -13 4 -23 13 -23 19 0 13 -13 12 -72 -4z"/>
<path d="M5667 5795 c-16 -29 -45 -73 -65 -97 l-36 -43 36 34 c33 31 105 147
96 156 -2 2 -16 -20 -31 -50z"/>
<path d="M5805 5799 c-30 -46 -47 -87 -23 -54 27 37 60 95 54 95 -3 0 -17 -18
-31 -41z"/>
<path d="M6142 5784 c-6 -21 -28 -64 -48 -94 -22 -34 -28 -48 -15 -36 26 24
85 140 79 157 -2 6 -9 -6 -16 -27z"/>
<path d="M6612 5760 c0 -14 2 -19 5 -12 2 6 2 18 0 25 -3 6 -5 1 -5 -13z"/>
<path d="M6250 5724 c-12 -19 -20 -37 -18 -39 2 -3 15 13 27 35 28 50 21 53
-9 4z"/>
<path d="M6577 5674 c-15 -30 -48 -77 -72 -103 -25 -26 -42 -51 -38 -54 3 -4
-19 -18 -51 -33 -47 -21 -67 -25 -119 -21 -34 2 -78 9 -97 15 l-35 11 23 -19
c30 -25 120 -35 180 -20 55 14 113 47 110 63 -1 7 15 29 36 51 34 35 102 153
94 162 -2 2 -16 -21 -31 -52z"/>
<path d="M5756 5705 c-9 -26 -7 -32 5 -12 6 10 9 21 6 23 -2 3 -7 -2 -11 -11z"/>
<path d="M6810 5686 c-50 -14 -94 -35 -87 -42 2 -2 21 3 42 12 27 11 58 14
101 11 35 -2 61 0 58 5 -3 4 -10 6 -15 3 -5 -4 -12 1 -15 9 -7 19 -22 19 -84
2z"/>
<path d="M6980 5690 c-8 -5 -10 -10 -5 -10 6 0 17 5 25 10 8 5 11 10 5 10 -5
0 -17 -5 -25 -10z"/>
<path d="M6992 5555 c-39 -80 -70 -145 -67 -145 7 0 147 281 143 286 -2 2 -36
-62 -76 -141z"/>
<path d="M5741 5654 c0 -11 3 -14 6 -6 3 7 2 16 -1 19 -3 4 -6 -2 -5 -13z"/>
<path d="M6216 5655 c-9 -26 -7 -32 5 -12 6 10 9 21 6 23 -2 3 -7 -2 -11 -11z"/>
<path d="M4930 5630 c36 -11 50 -11 50 0 0 6 -17 10 -37 9 -34 -1 -35 -2 -13
-9z"/>
<path d="M5535 5620 c-19 -13 -39 -18 -53 -15 -15 4 -21 2 -17 -4 3 -6 -6 -13
-20 -17 -29 -7 -140 -1 -170 10 -11 4 -6 -1 10 -11 45 -27 167 -25 221 4 22
12 46 29 53 37 18 21 12 20 -24 -4z"/>
<path d="M6202 5600 c0 -14 2 -19 5 -12 2 6 2 18 0 25 -3 6 -5 1 -5 -13z"/>
<path d="M6665 5599 c-4 -6 -5 -12 -2 -15 2 -3 7 2 10 11 7 17 1 20 -8 4z"/>
<path d="M5965 5549 c-69 -33 -161 -39 -222 -14 -29 12 -33 12 -24 1 13 -16
86 -36 129 -36 45 0 124 27 157 54 38 32 34 31 -40 -5z"/>
<path d="M6800 5436 c-24 -9 -30 -15 -20 -19 8 -3 -10 -6 -40 -6 -39 -1 -51 2
-40 9 12 8 10 10 -10 11 -14 1 -38 2 -53 3 -26 2 -27 1 -11 -11 38 -28 128
-41 180 -27 12 3 27 17 33 30 12 27 10 28 -39 10z"/>
<path d="M6539 5310 c-22 -14 53 -40 130 -47 73 -6 168 15 191 42 16 19 11 19
-31 -2 -39 -21 -224 -26 -237 -7 -11 16 -37 23 -53 14z"/>
<path d="M5386 8761 c-7 -10 18 -34 27 -25 7 8 -3 34 -13 34 -5 0 -11 -4 -14
-9z"/>
<path d="M5335 8700 c3 -5 11 -10 16 -10 6 0 7 5 4 10 -3 6 -11 10 -16 10 -6
0 -7 -4 -4 -10z"/>
<path d="M5284 8669 c-3 -6 -19 -9 -35 -5 -15 3 -31 1 -34 -4 -14 -22 107 -49
131 -29 21 17 17 29 -11 29 -14 0 -25 5 -25 10 0 13 -17 13 -26 -1z"/>
<path d="M5034 8604 c-18 -14 -18 -15 4 -4 12 6 22 13 22 15 0 8 -5 6 -26 -11z"/>
<path d="M5160 8610 c0 -5 5 -10 11 -10 5 0 7 5 4 10 -3 6 -8 10 -11 10 -2 0
-4 -4 -4 -10z"/>
<path d="M4967 8583 c-15 -15 -19 -16 -26 -4 -6 10 -10 10 -16 1 -10 -16 4
-26 45 -34 28 -5 38 -2 48 14 11 18 10 20 -10 20 -19 0 -20 2 -8 10 13 9 13
10 0 10 -9 0 -24 -8 -33 -17z"/>
<path d="M5130 8570 c0 -7 -13 -8 -34 -5 -38 8 -54 -6 -30 -26 21 -17 215 -19
221 -2 3 7 -18 14 -62 18 -36 4 -68 11 -71 16 -7 12 -24 11 -24 -1z"/>
<path d="M4865 8498 c7 -34 25 -62 25 -40 0 9 5 10 16 4 9 -5 25 -7 35 -5 11
3 19 1 19 -5 0 -6 10 -9 22 -7 12 3 27 0 35 -6 9 -8 17 -8 27 0 8 7 17 8 20 3
3 -5 17 -8 31 -7 14 2 27 0 30 -5 3 -4 14 -6 24 -3 10 3 28 0 39 -6 18 -9 24
-7 40 17 l20 28 -174 22 c-96 12 -184 27 -195 33 -20 10 -21 9 -14 -23z"/>
<path d="M3901 8379 c-64 -13 -163 -61 -209 -104 -51 -46 -92 -126 -92 -179 0
-38 -66 -265 -111 -382 -11 -28 -19 -55 -17 -60 1 -5 -3 -18 -9 -29 -6 -11
-14 -38 -18 -60 -4 -22 -14 -52 -21 -66 -7 -15 -11 -28 -9 -31 3 -2 -4 -27
-15 -55 -10 -28 -16 -53 -13 -57 4 -3 1 -6 -6 -6 -9 0 -12 -9 -9 -24 3 -14 0
-27 -7 -30 -7 -2 -11 -23 -11 -49 1 -25 -2 -43 -6 -40 -5 2 -8 0 -8 -6 0 -5 6
-12 13 -14 7 -3 5 -6 -5 -6 -21 -1 -25 -21 -4 -21 17 0 26 22 26 66 0 20 5 33
11 31 6 -1 17 13 23 32 7 19 17 36 23 38 6 2 9 13 6 23 -3 11 0 20 6 20 6 0 8
7 4 17 -5 12 -3 14 7 8 9 -5 11 -4 6 3 -4 6 1 23 10 37 9 14 13 25 8 25 -4 0
-3 5 4 12 7 7 12 19 12 28 0 9 8 25 18 36 10 11 17 25 14 32 -2 7 0 18 6 25 9
12 37 90 33 95 -1 1 6 17 16 35 9 17 18 34 18 37 7 32 30 90 35 90 5 0 11 12
15 27 3 15 14 43 22 62 9 20 17 38 18 41 8 31 18 50 22 46 3 -3 14 -1 24 5 12
6 25 6 36 0 19 -10 141 -27 328 -45 33 -4 94 -11 135 -18 41 -6 89 -12 105
-14 17 -1 48 -5 70 -8 22 -3 76 -10 120 -16 44 -5 89 -11 100 -14 11 -2 47 -7
80 -11 33 -3 88 -10 123 -14 l63 -8 50 81 c27 44 49 83 49 87 0 3 -24 9 -52
12 -29 3 -195 24 -368 47 -547 72 -774 100 -808 100 -69 0 -44 64 44 112 65
36 100 36 425 -6 844 -110 847 -110 863 -97 26 22 19 28 -41 34 -32 4 -67 8
-78 11 -11 2 -47 7 -80 10 -33 4 -76 9 -95 11 -236 30 -775 96 -810 99 -25 2
-65 0 -89 -5z"/>
<path d="M12625 8344 c-85 -77 -290 -272 -349 -331 -35 -35 -68 -63 -74 -63
-7 0 -12 -6 -12 -13 0 -7 -19 -28 -41 -47 -23 -19 -48 -40 -55 -48 -8 -7 -18
-10 -24 -7 -5 3 -10 0 -10 -8 0 -18 -80 -89 -94 -84 -7 3 -13 -4 -13 -15 -3
-28 -10 -33 -28 -18 -9 7 -15 9 -14 4 4 -23 -2 -45 -11 -39 -6 4 -8 11 -5 16
4 5 2 9 -4 9 -21 0 -36 -46 -19 -57 7 -3 8 -1 4 5 -4 7 -2 12 4 12 7 0 10 -6
7 -12 -2 -7 -12 -12 -22 -10 -9 2 -15 -1 -12 -5 3 -5 -3 -9 -13 -10 -12 -1
-17 3 -14 12 3 7 0 16 -5 20 -6 3 -9 11 -6 16 4 5 1 9 -4 9 -14 0 -14 -17 -1
-25 6 -3 10 -10 10 -15 0 -12 -60 -41 -71 -34 -5 3 -9 1 -9 -4 0 -19 33 -22
46 -5 7 10 14 13 14 7 0 -20 -23 -33 -50 -28 -28 6 -44 -7 -53 -41 -4 -18 -5
-18 -6 2 0 12 9 31 21 42 l21 21 -54 50 c-54 50 -73 63 -49 35 7 -8 11 -15 9
-16 -2 0 -12 -2 -22 -4 -11 -2 -22 -7 -25 -11 -4 -4 1 -4 12 0 14 5 17 2 12
-9 -3 -8 -2 -15 3 -15 5 0 11 10 14 22 5 18 8 19 21 8 9 -7 16 -17 16 -22 0
-6 -7 -4 -17 3 -15 13 -15 12 -2 -8 8 -13 16 -18 20 -12 5 9 39 -14 39 -26 0
-8 -52 3 -62 13 -7 7 -16 12 -22 12 -5 0 1 -9 13 -19 20 -18 21 -20 4 -23 -12
-2 -14 -6 -6 -11 6 -4 18 0 27 8 19 20 28 5 11 -19 -9 -11 -18 -15 -27 -10
-18 12 -52 12 -60 0 -9 -13 -37 -16 -43 -6 -3 5 4 7 15 5 23 -4 23 -5 10 30
-5 14 -14 23 -20 20 -5 -3 -10 -3 -11 2 0 4 -2 19 -3 32 l-3 24 18 -21 c9 -12
25 -22 36 -22 15 0 16 2 3 10 -13 9 -13 10 0 11 15 1 -26 16 -69 25 -26 5 -57
32 -47 41 3 4 6 3 6 -2 0 -4 8 -1 17 6 14 12 16 12 11 -6 -4 -15 0 -20 18 -21
16 -1 22 3 21 17 -1 10 -4 19 -7 20 -33 4 -46 11 -57 25 -7 10 -13 13 -13 7 0
-7 5 -15 11 -19 8 -5 6 -10 -5 -16 -9 -5 -16 -12 -16 -17 0 -13 41 -52 49 -47
5 3 6 -6 3 -19 -2 -14 -9 -28 -16 -32 -6 -3 -7 -2 -3 2 4 5 -3 15 -15 22 l-23
12 24 1 c24 0 24 0 5 15 -22 17 -38 20 -29 5 3 -5 -3 -10 -15 -10 -13 0 -19
-4 -14 -12 4 -6 3 -8 -4 -5 -5 4 -9 18 -7 32 1 14 -2 25 -6 25 -5 0 -9 6 -9
14 0 8 -4 18 -10 21 -5 3 -7 0 -4 -8 3 -9 -3 -17 -16 -20 -14 -3 -19 -10 -15
-17 6 -9 2 -9 -14 -1 -24 13 -25 12 -11 -23 8 -23 7 -25 -13 -22 -12 1 -21 6
-19 9 10 29 9 45 -3 41 -7 -3 -15 2 -18 10 -4 10 -1 13 9 9 13 -5 15 0 11 25
-4 23 -2 29 9 25 8 -3 16 3 20 13 3 11 12 30 19 45 13 24 13 25 -16 23 -17 -1
-28 1 -24 4 3 4 16 7 28 7 19 0 22 5 19 33 -3 30 -2 33 16 23 10 -5 30 -8 43
-5 18 5 21 3 9 -5 -18 -12 -10 -23 9 -12 21 13 2 33 -24 27 -13 -3 -26 -3 -28
1 -3 5 6 9 21 10 14 0 29 8 34 17 5 8 15 13 23 10 8 -4 12 -10 9 -15 -6 -10 9
-12 19 -2 4 3 -1 12 -11 19 -12 10 -13 13 -3 14 8 0 20 8 27 18 13 16 14 16 8
-3 -4 -12 4 -6 20 14 14 19 26 39 26 44 0 5 7 6 16 3 9 -3 12 -2 9 5 -4 5 -3
15 3 22 5 7 10 34 11 61 l2 50 -48 -43 c-26 -23 -55 -49 -64 -57 -9 -7 -25
-14 -37 -14 -11 0 -24 -5 -28 -12 -5 -7 -3 -8 5 -3 9 5 12 2 9 -11 -3 -17 -18
-20 -118 -29 l-115 -11 65 -7 c36 -5 72 -12 79 -16 19 -12 5 -31 -22 -31 -12
0 -42 -19 -67 -41 l-45 -41 48 37 c62 48 62 22 0 -30 -28 -24 -48 -34 -51 -27
-2 7 -13 12 -25 12 -19 1 -17 5 16 35 l39 34 -36 7 c-24 4 -42 2 -51 -6 -9 -7
-18 -10 -22 -6 -4 3 -24 -10 -45 -31 -21 -20 -38 -32 -38 -25 0 7 -9 12 -19
12 -33 0 -31 15 5 40 29 19 33 25 19 32 -8 5 -27 8 -42 6 -21 -2 -28 -11 -39
-48 -8 -25 -12 -51 -9 -58 3 -7 1 -11 -3 -8 -5 3 -41 -72 -81 -167 -39 -95
-74 -177 -77 -183 -3 -8 28 -16 93 -24 54 -6 242 -32 418 -57 176 -25 357 -46
403 -48 62 -3 91 -9 117 -25 35 -21 75 -90 75 -127 0 -64 -36 -69 -122 -17
-59 36 -95 43 -155 30 -28 -6 -170 9 -663 73 -170 22 -228 26 -236 18 -10 -10
-74 -158 -74 -170 0 -2 6 -4 13 -5 6 0 30 -3 52 -7 121 -17 204 -28 240 -31
22 -2 49 -6 61 -8 24 -6 151 -19 177 -18 9 0 17 -3 17 -7 0 -4 10 -7 23 -8 45
-1 153 -14 172 -20 11 -3 36 -7 55 -8 19 -1 51 -5 70 -9 19 -4 44 -8 55 -9 39
-4 49 -24 84 -177 28 -119 34 -144 36 -155 2 -5 8 -30 16 -55 7 -25 13 -50 15
-57 1 -6 12 -54 24 -107 12 -52 19 -100 15 -106 -3 -5 -1 -10 4 -10 6 0 11
-13 11 -30 0 -16 4 -30 9 -30 6 0 9 -12 7 -27 -1 -16 4 -43 11 -61 13 -31 13
-33 -4 -28 -14 4 -19 1 -20 -14 -1 -11 2 -18 6 -16 4 3 12 2 18 -2 16 -10 25
-49 14 -57 -7 -4 -8 1 -4 11 4 11 2 15 -4 11 -6 -4 -10 1 -9 11 1 12 -6 17
-22 16 -12 -1 -21 1 -18 3 2 3 -4 13 -14 23 -11 11 -22 35 -26 55 -5 26 -9 33
-19 25 -6 -5 -14 -9 -16 -7 -2 1 2 -3 9 -9 10 -9 8 -13 -8 -17 -11 -3 -20 -1
-20 4 0 5 -10 8 -22 8 -18 -1 -19 -2 -5 -6 20 -5 18 -24 -3 -31 -7 -3 -10 0
-6 7 4 6 3 11 -3 11 -5 0 -14 12 -19 28 -6 15 -11 20 -11 11 -1 -19 -41 -32
-65 -23 -9 3 -16 14 -16 24 0 32 -18 32 -40 0 -12 -16 -16 -30 -10 -30 6 0 8
-5 4 -11 -9 -15 -24 9 -17 28 3 7 0 13 -6 13 -6 0 -11 5 -11 11 0 6 7 9 15 5
8 -3 15 -1 15 4 0 5 -7 15 -15 24 -18 17 -19 27 -4 24 6 -2 13 3 14 10 2 7 1
8 -2 2 -2 -5 -9 -8 -13 -5 -5 3 -14 -4 -20 -16 -7 -13 -8 -19 -2 -15 6 3 13 2
17 -4 3 -5 -1 -10 -9 -10 -9 0 -15 -3 -15 -7 4 -27 -1 -35 -16 -23 -8 6 -23 9
-34 5 -10 -3 -22 -1 -26 5 -3 6 -11 8 -16 5 -12 -8 -40 20 -31 30 7 8 -2 5
-45 -12 -16 -6 -16 -4 1 13 11 10 22 17 24 16 8 -6 20 21 15 34 -9 25 -30 23
-25 -2 2 -14 0 -24 -7 -24 -7 0 -9 5 -5 12 4 7 3 8 -4 4 -6 -4 -9 -13 -5 -21
3 -8 0 -15 -5 -15 -6 0 -13 -8 -16 -17 -3 -10 -4 -6 -2 9 4 31 -20 57 -47 53
-13 -3 -17 1 -13 11 3 9 1 12 -4 9 -6 -4 -9 -14 -8 -23 2 -9 -5 -18 -16 -20
-11 -2 -16 0 -12 7 4 6 1 9 -7 5 -8 -3 -30 12 -51 33 -20 21 -34 30 -30 21 5
-14 1 -18 -16 -18 -13 0 -19 4 -14 12 4 6 3 8 -4 5 -5 -4 -8 -17 -4 -29 3 -12
7 -17 10 -10 2 6 8 12 14 12 6 0 6 -6 -2 -15 -11 -13 -16 -13 -41 2 -16 10
-29 21 -29 26 0 18 -33 1 -36 -18 -3 -20 -3 -20 12 -1 14 19 14 19 14 -2 0
-12 -6 -22 -12 -23 -7 0 -23 -2 -35 -3 -25 -3 -28 2 -13 24 7 11 10 11 10 2 0
-7 4 -10 10 -7 6 4 5 13 -3 25 -9 16 -9 24 1 41 9 14 10 25 4 31 -7 7 -10 4
-9 -7 1 -11 -6 -19 -21 -21 -13 -2 -21 0 -18 5 3 5 -1 14 -8 20 -11 9 -16 9
-22 0 -4 -8 -3 -9 4 -5 7 4 12 1 12 -9 0 -9 9 -19 20 -22 24 -6 16 -23 -11
-23 -19 0 -25 -11 -12 -23 3 -4 13 -1 22 6 13 10 14 10 5 -3 -12 -17 -12 -30
-1 -47 5 -8 4 -13 -2 -13 -6 0 -12 5 -12 10 -1 6 -2 15 -3 20 0 6 -5 9 -11 8
-5 -2 -9 -7 -7 -12 2 -5 -4 -4 -12 4 -17 14 -23 65 -6 55 6 -3 10 -4 10 -1 0
3 -9 10 -19 15 -14 8 -20 7 -25 -5 -3 -8 -2 -13 3 -10 4 3 8 -7 7 -23 -1 -17
-6 -27 -12 -24 -7 2 -10 13 -7 24 3 10 0 19 -6 19 -6 0 -10 5 -9 12 2 6 -6 13
-17 15 -11 2 -16 1 -10 -4 27 -21 7 -73 -28 -73 -21 0 -20 1 6 18 15 10 24 21
21 25 -4 3 -13 0 -21 -8 -8 -8 -20 -15 -26 -15 -8 0 -8 3 1 12 8 8 8 17 1 32
-9 19 -9 19 4 4 16 -20 27 -14 27 16 0 14 -3 17 -8 9 -4 -7 -17 -11 -28 -9
-10 2 -30 -5 -43 -15 -13 -10 -19 -19 -15 -19 5 0 -2 -7 -14 -16 -13 -9 -21
-22 -18 -30 3 -8 0 -11 -10 -7 -17 6 -19 23 -1 23 8 0 7 3 -3 10 -9 6 -20 5
-29 -3 -11 -9 -13 -9 -8 0 4 7 0 16 -9 21 -11 6 -13 11 -5 16 6 4 11 11 11 17
0 5 -11 -1 -25 -13 -13 -11 -22 -25 -19 -29 9 -15 -14 -19 -26 -4 -10 12 -9
15 3 15 9 0 22 10 28 23 11 20 11 21 -4 8 -10 -7 -17 -10 -17 -5 0 5 -4 3 -9
-4 -4 -7 -26 -14 -47 -15 -34 -2 -40 1 -40 17 1 10 -6 21 -14 23 -10 3 -11 2
-4 -4 16 -11 2 -44 -14 -34 -10 6 -10 14 1 39 7 18 17 29 22 25 4 -5 5 -2 1 4
-4 7 16 70 43 140 28 69 49 128 48 130 -4 3 -173 -358 -280 -597 -61 -137
-422 -984 -529 -1240 -99 -238 -144 -368 -139 -402 1 -10 -3 -18 -9 -18 -6 0
-9 -4 -6 -9 8 -13 -39 -130 -883 -2156 -109 -264 -212 -507 -227 -540 -16 -33
-29 -65 -30 -71 -3 -19 -75 -197 -99 -244 -13 -25 -38 -61 -57 -79 -55 -54
-84 -65 -173 -66 -72 0 -88 4 -155 36 -113 55 -275 101 -545 155 -48 9 -100
22 -100 24 0 1 -11 4 -24 6 -14 2 -52 11 -84 20 -33 8 -62 13 -65 10 -3 -3
-11 -1 -18 5 -11 9 -26 13 -79 23 -5 1 -15 5 -22 9 -7 4 -32 9 -57 10 -24 1
-43 5 -40 8 2 4 -7 9 -21 11 -15 3 -25 1 -25 -6 0 -7 -3 -7 -8 1 -8 13 -231
64 -282 64 -38 1 -70 11 -64 21 4 6 2 8 -4 4 -6 -3 -32 -1 -59 5 -26 6 -60 11
-75 11 -16 0 -28 3 -28 8 0 4 -18 7 -40 6 -22 0 -41 2 -43 6 -1 3 -25 9 -53
12 -53 5 -98 14 -124 23 -8 3 -28 6 -45 7 -16 2 -41 6 -55 10 -19 6 -21 5 -10
-3 20 -15 4 -14 -23 1 -12 6 -35 12 -52 13 -16 0 -35 3 -40 7 -6 3 -28 9 -49
13 -32 6 -37 5 -31 -6 8 -12 6 -12 -8 0 -9 7 -23 11 -32 8 -8 -4 -17 -1 -21 4
-3 6 -17 9 -30 6 -14 -2 -26 -1 -29 3 -2 4 -18 6 -34 5 -18 -1 -28 2 -24 8 4
6 -5 8 -21 5 -14 -3 -29 -2 -31 2 -3 5 -21 7 -41 6 -20 -1 -38 2 -40 5 -2 4
-13 5 -24 2 -11 -3 -27 0 -35 7 -12 10 -15 10 -15 -1 0 -10 -3 -10 -8 -3 -4 6
-15 10 -25 8 -10 -1 -31 2 -45 6 -15 5 -52 11 -82 13 -30 2 -66 9 -79 16 -14
8 -21 9 -17 2 4 -6 3 -11 -3 -11 -5 0 -13 5 -16 10 -4 6 -10 8 -13 6 -4 -2
-37 0 -72 5 -36 5 -99 12 -140 15 -41 3 -83 11 -94 16 -13 7 -21 6 -27 -3 -6
-9 -12 -10 -16 -4 -5 6 -35 12 -68 13 -33 1 -73 6 -90 10 -16 5 -55 8 -87 8
-31 -1 -55 1 -53 5 2 3 -13 5 -33 6 -53 1 -156 12 -272 28 -43 7 -360 44 -470
56 -58 6 -230 13 -383 14 -214 2 -281 6 -295 17 -15 11 -16 11 -5 -3 19 -24
102 -66 156 -80 32 -8 44 -15 35 -20 -18 -12 39 -34 137 -52 154 -30 311 -57
385 -67 41 -6 82 -12 90 -15 8 -2 33 -7 55 -10 22 -3 78 -12 125 -20 47 -8
186 -30 310 -49 124 -19 308 -48 410 -65 275 -45 615 -99 700 -111 41 -6 140
-22 220 -35 80 -13 262 -43 405 -65 143 -23 319 -52 390 -65 72 -13 209 -35
305 -50 96 -14 225 -34 285 -45 61 -11 133 -22 160 -25 28 -4 97 -15 155 -25
119 -21 453 -74 578 -91 46 -6 107 -9 136 -5 97 11 227 99 280 191 28 47 21
31 484 1150 630 1522 748 1805 840 2020 115 268 113 265 123 259 5 -3 104 -16
221 -29 117 -14 294 -37 393 -51 99 -14 248 -34 330 -45 83 -11 157 -21 165
-24 8 -2 107 -16 220 -30 113 -14 250 -32 305 -40 55 -8 159 -24 230 -35 72
-11 168 -24 215 -30 47 -6 144 -20 215 -31 72 -12 175 -21 230 -22 86 0 110 4
169 27 97 38 113 51 212 179 486 621 1004 1289 1004 1295 0 3 -13 -9 -29 -28
-48 -59 -1021 -1307 -1043 -1339 -46 -66 -184 -66 -311 -1 -38 20 -244 97
-275 104 -7 1 -21 9 -30 17 -9 8 -25 13 -36 11 -12 -3 -17 1 -14 10 3 7 16 12
29 11 13 -1 53 -4 89 -7 36 -3 75 -8 88 -10 13 -3 22 0 22 7 0 8 3 8 8 2 4 -5
18 -11 32 -13 14 -2 70 -13 125 -24 144 -30 172 -29 217 11 l32 29 -16 83
c-10 46 -42 194 -73 329 -58 253 -67 296 -110 490 -13 63 -29 133 -35 155 -5
22 -37 162 -70 310 -33 149 -64 288 -70 310 -5 22 -16 72 -25 110 -46 213 -87
394 -95 426 -6 20 -10 62 -10 93 0 70 -79 -19 646 725 337 346 334 343 334
371 0 37 -52 114 -101 149 -46 34 -124 66 -184 75 -36 5 -44 2 -80 -30z
m-1144 -367 c-10 -9 -11 -8 -5 6 3 10 9 15 12 12 3 -3 0 -11 -7 -18z m-501
-171 c0 -3 -4 -8 -10 -11 -5 -3 -10 -1 -10 4 0 6 5 11 10 11 6 0 10 -2 10 -4z
m141 -29 c-10 -9 -11 -8 -5 6 3 10 9 15 12 12 3 -3 0 -11 -7 -18z m-151 -17
c15 -12 21 -23 15 -27 -16 -13 -41 -48 -28 -40 6 4 13 2 15 -5 2 -6 15 -12 29
-14 13 -1 18 0 12 2 -7 3 -13 10 -13 16 0 7 5 6 14 -2 20 -16 10 -36 -17 -37
-56 -1 -67 -4 -67 -18 0 -8 -4 -15 -10 -15 -5 0 -10 7 -10 15 0 8 5 15 11 15
5 0 7 5 4 11 -4 6 -14 8 -22 5 -11 -5 -13 -1 -7 17 16 52 25 68 40 74 13 5 13
7 2 14 -7 5 -8 9 -3 9 6 0 21 -9 35 -20z m179 -38 c-5 -2 -9 -10 -9 -18 0 -8
-6 -14 -12 -14 -10 0 -10 -2 -1 -8 8 -5 7 -12 -3 -27 -15 -19 -15 -19 -12 7 2
15 7 30 11 34 11 11 8 34 -4 34 -5 0 -7 -4 -4 -10 3 -5 1 -10 -4 -10 -16 0
-13 11 7 30 15 15 18 15 29 1 6 -9 8 -17 2 -19z m-64 8 c3 -5 1 -10 -4 -10 -6
0 -11 5 -11 10 0 6 2 10 4 10 3 0 8 -4 11 -10z m-91 -25 c-4 -8 -11 -12 -16
-9 -6 4 -5 10 3 15 19 12 19 11 13 -6z m100 -12 c4 -9 2 -21 -3 -26 -6 -6 -9
-2 -8 9 1 11 -4 18 -10 17 -7 -2 -13 2 -13 7 0 17 27 11 34 -7z m440 1 c3 -8
2 -12 -4 -9 -6 3 -10 10 -10 16 0 14 7 11 14 -7z m-441 -63 c9 -9 17 -20 17
-26 0 -5 -5 -3 -10 5 -7 12 -12 12 -22 2 -6 -6 -17 -12 -22 -12 -6 0 -5 4 3 9
12 8 12 14 4 33 -7 13 -12 17 -12 11 -1 -7 -6 -13 -12 -13 -8 0 -8 4 1 15 6 8
9 20 5 27 -3 7 2 2 12 -12 10 -13 26 -31 36 -39z m83 33 c-3 -7 0 -16 6 -20
10 -6 -7 -23 -24 -24 -6 0 -5 39 1 68 1 2 6 0 12 -3 6 -4 8 -13 5 -21z m221 0
c4 -10 0 -22 -10 -29 -9 -7 -15 -14 -12 -17 3 -2 -2 -5 -10 -5 -11 0 -13 6 -9
21 4 12 7 27 7 34 0 18 27 15 34 -4z m-120 -27 c-1 -15 -3 -16 -12 -4 -5 7
-16 12 -24 9 -8 -3 -11 0 -7 6 11 18 45 10 43 -11z m-383 -12 c-3 -7 -12 -16
-19 -19 -9 -3 -12 0 -8 10 3 7 9 14 15 14 5 0 6 5 2 12 -4 7 -3 8 4 4 6 -4 9
-13 6 -21z m253 -36 c-2 -10 -6 -21 -10 -24 -4 -3 -5 -2 -3 1 2 3 0 19 -4 36
-8 25 -7 28 5 18 8 -7 13 -20 12 -31z m296 1 c-8 -3 -14 -10 -13 -15 1 -5 -4
-11 -11 -14 -6 -2 -10 0 -7 5 33 67 32 66 39 47 4 -11 1 -20 -8 -23z m-423 21
c0 -6 -5 -13 -10 -16 -6 -4 -8 -10 -5 -14 2 -5 -2 -17 -11 -27 -15 -18 -15
-18 -6 1 5 11 7 26 5 33 -3 6 0 12 7 12 6 0 8 5 5 10 -3 6 -1 10 4 10 6 0 11
-4 11 -9z m221 -14 c-10 -9 -11 -8 -5 6 3 10 9 15 12 12 3 -3 0 -11 -7 -18z
m173 15 c2 -4 1 -14 -3 -21 -6 -9 -10 -7 -14 8 -5 20 7 29 17 13z m-437 -21
c-1 -12 -6 -17 -16 -13 -10 4 -11 7 -3 10 7 2 10 8 6 13 -3 5 -1 9 5 9 5 0 9
-9 8 -19z m232 -9 c-1 -26 -1 -26 -7 -4 -8 26 -21 30 -33 10 -5 -7 -9 -8 -9
-2 0 15 6 19 30 21 16 1 20 -4 19 -25z m-94 -2 c3 -5 2 -10 -4 -10 -5 0 -13 5
-16 10 -3 6 -2 10 4 10 5 0 13 -4 16 -10z m440 -2 c5 4 5 2 2 -4 -4 -7 -21
-10 -41 -7 -25 3 -36 0 -39 -11 -4 -13 -5 -13 -3 1 1 19 45 34 62 21 6 -4 15
-4 19 0z m-475 -18 c0 -5 -8 -10 -17 -10 -15 0 -16 2 -3 10 19 12 20 12 20 0z
m93 -10 c-3 -11 -7 -20 -9 -20 -2 0 -4 9 -4 20 0 11 4 20 9 20 5 0 7 -9 4 -20z
m121 -20 c-6 -6 -10 -3 -10 10 0 13 4 16 10 10 7 -7 7 -13 0 -20z m106 0 c0
-5 -2 -10 -4 -10 -3 0 -8 5 -11 10 -3 6 -1 10 4 10 6 0 11 -4 11 -10z m-66 -8
c3 -5 -1 -9 -9 -9 -8 0 -12 4 -9 9 3 4 7 8 9 8 2 0 6 -4 9 -8z m276 4 c0 -2
-7 -7 -16 -10 -8 -3 -12 -2 -9 4 6 10 25 14 25 6z m61 -9 c-1 -12 -15 -9 -19
4 -3 6 1 10 8 8 6 -3 11 -8 11 -12z m-996 -1147 c3 -5 1 -10 -4 -10 -6 0 -11
5 -11 10 0 6 2 10 4 10 3 0 8 -4 11 -10z m-260 -40 c4 -6 -1 -7 -11 -3 -13 5
-15 3 -9 -7 5 -9 4 -11 -3 -6 -7 4 -12 11 -12 17 0 12 27 12 35 -1z m685 -36
c0 -7 -9 -14 -21 -17 -13 -3 -19 -1 -16 6 3 7 11 11 18 9 8 -2 10 0 6 4 -11
12 -37 14 -37 3 0 -5 -4 -9 -10 -9 -6 0 -5 9 2 24 10 24 12 24 34 8 13 -9 24
-22 24 -28z m-426 21 c4 -12 2 -13 -13 -6 -12 7 -22 6 -31 -2 -12 -10 -12 -9
-1 6 17 21 37 22 45 2z m-353 -22 c-12 -20 -14 -14 -5 12 4 9 9 14 11 11 3 -2
0 -13 -6 -23z m682 -16 c-6 -9 -43 21 -43 35 0 5 11 1 24 -9 13 -10 22 -22 19
-26z m-563 29 c0 -3 -4 -8 -10 -11 -5 -3 -10 -1 -10 4 0 6 5 11 10 11 6 0 10
-2 10 -4z m320 -21 c7 -9 8 -15 2 -15 -5 0 -12 7 -16 15 -3 8 -4 15 -2 15 2 0
9 -7 16 -15z m457 -2 c0 -10 -3 -10 -16 0 -12 10 -14 9 -9 -3 4 -11 -2 -15
-18 -16 -27 -2 -29 1 -12 19 15 17 55 17 55 0z m-87 -23 c-24 -15 -36 -11 -14
4 10 8 21 12 24 10 2 -3 -2 -9 -10 -14z m-90 -38 c0 -1 -9 2 -20 8 -11 6 -20
15 -20 20 0 6 9 2 20 -7 11 -10 20 -19 20 -21z m177 22 c-3 -3 -12 -4 -19 -1
-8 3 -5 6 6 6 11 1 17 -2 13 -5z m-47 -24 c0 -5 -2 -10 -4 -10 -3 0 -8 5 -11
10 -3 6 -1 10 4 10 6 0 11 -4 11 -10z m213 -22 c-2 -5 -10 -8 -18 -8 -7 0 -15
-6 -17 -12 -3 -7 -7 -4 -10 7 -4 16 0 20 23 20 15 0 25 -3 22 -7z m67 -7 c0
-6 -4 -12 -8 -15 -5 -3 -9 1 -9 9 0 8 4 15 9 15 4 0 8 -4 8 -9z m70 -1 c0 -5
-5 -10 -11 -10 -5 0 -7 5 -4 10 3 6 8 10 11 10 2 0 4 -4 4 -10z m90 -10 c0 -5
-4 -10 -10 -10 -5 0 -10 5 -10 10 0 6 5 10 10 10 6 0 10 -4 10 -10z m-53 -6
c-3 -3 -12 -4 -19 -1 -8 3 -5 6 6 6 11 1 17 -2 13 -5z m173 2 c0 -3 -4 -8 -10
-11 -5 -3 -10 -1 -10 4 0 6 5 11 10 11 6 0 10 -2 10 -4z m-90 -32 c0 -2 -9 -4
-21 -4 -11 0 -18 4 -14 10 5 8 35 3 35 -6z m40 6 c0 -5 -5 -10 -11 -10 -5 0
-7 5 -4 10 3 6 8 10 11 10 2 0 4 -4 4 -10z m-95 -10 c3 -5 1 -10 -4 -10 -6 0
-11 5 -11 10 0 6 2 10 4 10 3 0 8 -4 11 -10z m137 -17 c-11 -4 -10 -8 2 -22
11 -12 12 -20 5 -31 -9 -13 -10 -12 -5 2 3 11 -3 23 -17 33 -21 14 -22 14 -29
-7 -6 -23 -6 -23 -7 -1 -1 12 -9 24 -18 27 -10 2 -4 3 13 1 17 -1 37 1 45 6 7
4 16 5 19 2 3 -3 -1 -8 -8 -10z m38 -18 c7 -9 8 -15 2 -15 -5 0 -12 7 -16 15
-3 8 -4 15 -2 15 2 0 9 -7 16 -15z m31 -52 c-12 -20 -14 -14 -5 12 4 9 9 14
11 11 3 -2 0 -13 -6 -23z m-121 -3 c-8 -5 -19 -10 -25 -10 -5 0 -3 5 5 10 8 5
20 10 25 10 6 0 3 -5 -5 -10z m180 -54 c0 -8 -4 -17 -8 -20 -4 -2 -8 4 -8 15
0 10 4 19 8 19 4 0 8 -6 8 -14z"/>
<path d="M10916 7711 c-4 -5 0 -12 6 -14 10 -4 9 -6 -1 -6 -11 -1 -11 -4 -1
-16 14 -17 40 -20 40 -5 0 6 -4 10 -10 10 -5 0 -10 6 -10 14 0 18 -17 30 -24
17z"/>
<path d="M11176 8196 c-11 -41 4 -65 43 -71 20 -3 58 -10 84 -15 27 -6 68 -10
92 -10 38 0 50 6 87 41 l43 41 -59 -5 c-45 -5 -65 -12 -85 -31 -27 -26 -74
-35 -85 -17 -4 5 8 21 25 35 17 15 30 28 28 30 -2 2 -41 7 -86 12 -77 9 -82 9
-87 -10z"/>
<path d="M11540 8155 c-24 -25 -42 -45 -39 -45 3 0 25 20 49 45 24 25 42 45
39 45 -3 0 -25 -20 -49 -45z"/>
<path d="M11360 8165 c-13 -14 -19 -25 -13 -25 5 0 20 11 33 25 13 14 19 25
13 25 -5 0 -20 -11 -33 -25z"/>
<path d="M11060 8105 c0 -8 9 -15 20 -15 24 0 27 15 4 24 -22 9 -24 8 -24 -9z"/>
<path d="M11188 8073 c6 -2 18 -2 25 0 6 3 1 5 -13 5 -14 0 -19 -2 -12 -5z"/>
<path d="M11030 8061 c0 -5 -3 -17 -7 -27 -6 -15 1 -16 73 -10 138 12 150 18
64 32 -92 15 -130 17 -130 5z"/>
<path d="M11070 7900 c-19 -17 -26 -27 -15 -21 19 9 63 51 54 51 -3 0 -20 -14
-39 -30z"/>
<path d="M11486 7894 c-24 -24 -19 -30 7 -8 12 10 24 20 26 21 2 2 -1 3 -7 3
-6 0 -18 -7 -26 -16z"/>
<path d="M11370 7854 c0 -8 4 -13 9 -10 5 4 12 0 14 -6 4 -8 6 -7 6 3 1 9 -6
19 -14 23 -9 3 -15 0 -15 -10z"/>
<path d="M11450 7860 c0 -5 5 -10 11 -10 5 0 7 5 4 10 -3 6 -8 10 -11 10 -2 0
-4 -4 -4 -10z"/>
<path d="M11482 7794 c-7 -8 -8 -14 -3 -14 10 0 25 19 20 25 -2 1 -10 -3 -17
-11z"/>
<path d="M11875 7801 c-3 -5 -2 -12 3 -15 5 -3 9 1 9 9 0 17 -3 19 -12 6z"/>
<path d="M11533 7783 c-21 -8 -15 -23 10 -22 12 0 16 3 9 6 -6 2 -10 9 -6 14
6 10 5 10 -13 2z"/>
<path d="M11380 7771 c0 -14 50 -51 69 -50 12 0 11 2 -4 9 -11 4 -30 18 -42
29 -13 12 -23 17 -23 12z"/>
<path d="M11360 7751 c0 -5 5 -13 10 -16 6 -3 10 -2 10 4 0 5 -4 13 -10 16 -5
3 -10 2 -10 -4z"/>
<path d="M11343 7738 c3 -9 1 -19 -6 -22 -7 -2 -4 -5 6 -5 20 -1 21 7 6 29 -9
13 -10 13 -6 -2z"/>
<path d="M11910 7746 c0 -2 7 -7 16 -10 8 -3 12 -2 9 4 -6 10 -25 14 -25 6z"/>
<path d="M11550 7730 c0 -5 4 -10 9 -10 6 0 13 5 16 10 3 6 -1 10 -9 10 -9 0
-16 -4 -16 -10z"/>
<path d="M11753 7725 c0 -8 4 -12 9 -9 5 3 6 10 3 15 -9 13 -12 11 -12 -6z"/>
<path d="M11790 7729 c0 -5 5 -7 10 -4 6 3 10 8 10 11 0 2 -4 4 -10 4 -5 0
-10 -5 -10 -11z"/>
<path d="M11826 7725 c-18 -14 -14 -36 7 -34 8 0 8 2 -1 6 -10 4 -10 8 -2 18
13 16 43 8 33 -8 -3 -6 -1 -7 5 -3 16 10 15 14 -6 25 -12 6 -23 5 -36 -4z"/>
<path d="M11305 7720 c3 -5 8 -10 11 -10 2 0 4 5 4 10 0 6 -5 10 -11 10 -5 0
-7 -4 -4 -10z"/>
<path d="M11330 7690 c0 -5 5 -10 10 -10 6 0 10 5 10 10 0 6 -4 10 -10 10 -5
0 -10 -4 -10 -10z"/>
<path d="M11765 7687 c-6 -7 -15 -19 -20 -27 -8 -13 -7 -13 8 -1 10 8 17 9 17
3 0 -6 -4 -14 -10 -17 -14 -8 -13 -35 1 -35 6 0 9 7 5 15 -3 8 2 18 11 23 11
7 12 11 4 17 -9 5 -9 10 0 21 14 17 -2 18 -16 1z"/>
<path d="M11703 7673 c4 -6 2 -13 -5 -15 -8 -3 -6 -7 5 -11 23 -9 30 8 10 24
-9 8 -14 9 -10 2z"/>
<path d="M11590 7579 c6 -11 15 -17 21 -14 16 11 10 31 -11 32 -17 2 -18 -1
-10 -18z"/>
<path d="M3310 7120 c0 -5 7 -10 15 -10 8 0 15 5 15 10 0 6 -7 10 -15 10 -8 0
-15 -4 -15 -10z"/>
<path d="M10449 6448 c-6 -21 -5 -37 2 -32 5 3 7 11 3 17 -3 7 1 4 9 -5 19
-24 30 -23 17 2 -9 16 -28 27 -31 18z"/>
<path d="M11020 6429 c0 -5 5 -7 10 -4 6 3 10 8 10 11 0 2 -4 4 -10 4 -5 0
-10 -5 -10 -11z"/>
<path d="M10758 6423 c7 -3 16 -2 19 1 4 3 -2 6 -13 5 -11 0 -14 -3 -6 -6z"/>
<path d="M10950 6404 c0 -8 5 -12 10 -9 6 4 8 11 5 16 -9 14 -15 11 -15 -7z"/>
<path d="M11047 6407 c-3 -8 0 -14 7 -14 7 0 13 6 13 14 0 7 -4 13 -8 13 -4 0
-9 -6 -12 -13z"/>
<path d="M10400 6399 c0 -5 5 -7 10 -4 6 3 10 8 10 11 0 2 -4 4 -10 4 -5 0
-10 -5 -10 -11z"/>
<path d="M10575 6400 c-4 -6 -10 -8 -14 -6 -17 11 -6 -30 12 -46 24 -22 34
-23 17 -3 -7 8 -10 25 -6 40 7 26 2 33 -9 15z"/>
<path d="M10626 6398 c5 -8 2 -9 -10 -5 -10 4 -19 1 -22 -8 -7 -18 4 -37 18
-29 6 4 5 10 -3 15 -10 6 -7 8 10 7 27 -3 40 17 16 26 -11 4 -14 2 -9 -6z"/>
<path d="M10421 6386 c-9 -10 -8 -15 2 -19 8 -3 13 3 14 14 2 23 -1 24 -16 5z"/>
<path d="M10980 6386 c0 -12 -5 -16 -16 -12 -8 3 -12 2 -9 -3 8 -14 43 -9 41
6 -3 21 -16 28 -16 9z"/>
<path d="M10925 6370 c-3 -5 -1 -10 4 -10 6 0 11 5 11 10 0 6 -2 10 -4 10 -3
0 -8 -4 -11 -10z"/>
<path d="M10823 6325 c0 -8 4 -12 9 -9 5 3 6 10 3 15 -9 13 -12 11 -12 -6z"/>
<path d="M11360 6309 c11 -8 12 -12 2 -16 -6 -2 -10 -9 -7 -13 3 -5 1 -11 -5
-15 -5 -3 -11 -1 -11 4 -3 26 -4 30 -12 37 -4 4 -6 -5 -5 -19 1 -15 6 -27 11
-27 4 0 5 -5 1 -11 -4 -7 1 -7 16 1 20 11 22 10 17 -4 -9 -24 10 -20 24 5 6
12 7 19 1 15 -5 -3 -12 1 -16 9 -3 8 0 17 6 21 7 4 6 9 -3 15 -20 13 -37 11
-19 -2z"/>
<path d="M11515 6270 c-3 -5 -1 -10 4 -10 6 0 11 5 11 10 0 6 -2 10 -4 10 -3
0 -8 -4 -11 -10z"/>
<path d="M11550 6255 c0 -9 6 -12 15 -9 8 4 15 7 15 9 0 2 -7 5 -15 9 -9 3
-15 0 -15 -9z"/>
<path d="M11720 6260 c0 -5 5 -10 11 -10 5 0 7 5 4 10 -3 6 -8 10 -11 10 -2 0
-4 -4 -4 -10z"/>
<path d="M11620 6250 c0 -5 4 -10 10 -10 5 0 7 -7 4 -15 -4 -8 -2 -15 4 -15 5
0 13 7 16 16 3 8 10 13 15 9 5 -3 12 -1 15 4 4 5 -2 8 -11 6 -10 -1 -26 2 -35
7 -12 5 -18 5 -18 -2z"/>
<path d="M11576 6229 c4 -8 -1 -9 -17 -4 -21 7 -22 6 -11 -8 15 -18 53 -11 45
9 -3 8 -9 14 -15 14 -5 0 -6 -5 -2 -11z"/>
<path d="M11742 6204 c20 -44 33 -64 40 -64 11 0 -18 56 -33 66 -6 4 -10 3 -7
-2z"/>
<path d="M11777 6191 c3 -12 9 -21 14 -21 14 0 11 16 -5 29 -12 10 -13 8 -9
-8z"/>
<path d="M2995 5974 c11 -8 38 -20 60 -26 22 -6 45 -17 51 -25 20 -24 96 -43
232 -59 74 -8 168 -21 208 -28 82 -15 82 -15 123 54 l21 35 -98 12 c-316 40
-447 53 -527 53 -82 -1 -88 -2 -70 -16z"/>
</g>
</svg>
